<svg height="1em" viewBox="0 0 32 32" width="1em" xmlns="http://www.w3.org/2000/svg" >
	<path d="M0 0h32v32H0z" fill="none" />
	<path d="M5.902 27.201L3.656 2h24.688l-2.249 25.197L15.985 30z" fill="#1572b6" />
	<path d="m16 27.858l8.17-2.265l1.922-21.532H16z" fill="#33a9dc" />
	<path d="M16 13.191h4.09l.282-3.165H16V6.935h7.75l-.074.829l-.759 8.518H16z" fill="#fff" />
	<path d="m16.019 21.218l-.014.004l-3.442-.93l-.22-2.465H9.24l.433 4.853l6.331 1.758l.015-.004z" fill="#ebebeb" />
	<path d="m19.827 16.151l-.372 4.139l-3.447.93v3.216l6.336-1.756l.047-.522l.537-6.007z" fill="#fff" />
	<path d="M16.011 6.935v3.091H8.545l-.062-.695l-.141-1.567l-.074-.829zM16 13.191v3.091h-3.399l-.062-.695l-.14-1.567l-.074-.829z" fill="#ebebeb" />
</svg>
