<svg height="1em" viewBox="0 0 128 128" width="1em" xmlns="http://www.w3.org/2000/svg" >
	<path d="M0 0h128v128H0z" fill="none" />
	<mask height="128" id="SVGescYAbDI" maskUnits="userSpaceOnUse" style="mask-type:alpha" width="128" x="0" y="0" >
		<path clip-rule="evenodd" d="M90.767 127.126a7.97 7.97 0 0 0 6.35-.244l26.353-12.681a8 8 0 0 0 4.53-7.209V21.009a8 8 0 0 0-4.53-7.21L97.117 1.12a7.97 7.97 0 0 0-9.093 1.548l-50.45 46.026L15.6 32.013a5.33 5.33 0 0 0-6.807.302l-7.048 6.411a5.335 5.335 0 0 0-.006 7.888L20.796 64L1.74 81.387a5.336 5.336 0 0 0 .006 7.887l7.048 6.411a5.33 5.33 0 0 0 6.807.303l21.974-16.68l50.45 46.025a8 8 0 0 0 2.743 1.793Zm5.252-92.183L57.74 64l38.28 29.058V34.943Z" fill="#fff" fill-rule="evenodd" />
	</mask>
	<g mask="url(#SVGescYAbDI)">
		<path d="M123.471 13.82L97.097 1.12A7.97 7.97 0 0 0 88 2.668L1.662 81.387a5.333 5.333 0 0 0 .006 7.887l7.052 6.411a5.33 5.33 0 0 0 6.811.303l103.971-78.875c3.488-2.646 8.498-.158 8.498 4.22v-.306a8 8 0 0 0-4.529-7.208Z" fill="#0065a9" />
		<g filter="url(#SVGUBw6ic8w)">
			<path d="m123.471 114.181l-26.374 12.698A7.97 7.97 0 0 1 88 125.333L1.662 46.613a5.333 5.333 0 0 1 .006-7.887l7.052-6.411a5.33 5.33 0 0 1 6.811-.303l103.971 78.874c3.488 2.647 8.498.159 8.498-4.219v.306a8 8 0 0 1-4.529 7.208" fill="#007acc" />
		</g>
		<g filter="url(#SVGg9RgH3Uo)">
			<path d="M97.098 126.882A7.98 7.98 0 0 1 88 125.333c2.952 2.952 8 .861 8-3.314V5.98c0-4.175-5.048-6.266-8-3.313a7.98 7.98 0 0 1 9.098-1.549L123.467 13.8A8 8 0 0 1 128 21.01v85.982a8 8 0 0 1-4.533 7.21z" fill="#1f9cf0" />
		</g>
		<path clip-rule="evenodd" d="M90.69 127.126a7.97 7.97 0 0 0 6.349-.244l26.353-12.681a8 8 0 0 0 4.53-7.21V21.009a8 8 0 0 0-4.53-7.21L97.039 1.12a7.97 7.97 0 0 0-9.093 1.548l-50.45 46.026l-21.974-16.68a5.33 5.33 0 0 0-6.807.302l-7.048 6.411a5.336 5.336 0 0 0-.006 7.888L20.718 64L1.662 81.386a5.335 5.335 0 0 0 .006 7.888l7.048 6.411a5.33 5.33 0 0 0 6.807.303l21.975-16.681l50.45 46.026a8 8 0 0 0 2.742 1.793m5.252-92.184L57.662 64l38.28 29.057z" fill="url(#SVGpqCa3cMW)" fill-rule="evenodd" opacity=".25" />
	</g>
	<defs>
		<filter color-interpolation-filters="sRGB" filterUnits="userSpaceOnUse" height="113.408" id="SVGUBw6ic8w" width="144.744" x="-8.411" y="22.594" >
			<feFlood flood-opacity="0" result="BackgroundImageFix" />
			<feColorMatrix in="SourceAlpha" result="hardAlpha" values="0 0 0 0 0 0 0 0 0 0 0 0 0 0 0 0 0 0 127 0" />
			<feOffset />
			<feGaussianBlur stdDeviation="4.167" />
			<feColorMatrix values="0 0 0 0 0 0 0 0 0 0 0 0 0 0 0 0 0 0 0.25 0" />
			<feBlend in2="BackgroundImageFix" mode="overlay" result="effect1_dropShadow_1_36" />
			<feBlend in="SourceGraphic" in2="effect1_dropShadow_1_36" result="shape" />
		</filter>
		<filter color-interpolation-filters="sRGB" filterUnits="userSpaceOnUse" height="144.007" id="SVGg9RgH3Uo" width="56.667" x="79.667" y="-8.004" >
			<feFlood flood-opacity="0" result="BackgroundImageFix" />
			<feColorMatrix in="SourceAlpha" result="hardAlpha" values="0 0 0 0 0 0 0 0 0 0 0 0 0 0 0 0 0 0 127 0" />
			<feOffset />
			<feGaussianBlur stdDeviation="4.167" />
			<feColorMatrix values="0 0 0 0 0 0 0 0 0 0 0 0 0 0 0 0 0 0 0.25 0" />
			<feBlend in2="BackgroundImageFix" mode="overlay" result="effect1_dropShadow_1_36" />
			<feBlend in="SourceGraphic" in2="effect1_dropShadow_1_36" result="shape" />
		</filter>
		<linearGradient gradientUnits="userSpaceOnUse" id="SVGpqCa3cMW" x1="63.922" x2="63.922" y1=".33" y2="127.67" >
			<stop stop-color="#fff" />
			<stop offset="1" stop-color="#fff" stop-opacity="0" />
		</linearGradient>
	</defs>
</svg>
