<svg width="19" height="15" viewBox="0 0 19 15" fill="none" xmlns="http://www.w3.org/2000/svg">
<path d="M8.40391 12.7774C9.69502 14.0659 11.4757 14.8751 13.4415 14.8751C15.4581 14.8751 16.8887 14.0228 18.0834 12.8611L16.63 10.8166C15.7193 11.6816 14.6236 12.3335 13.3527 12.3335C12.2443 12.3335 11.1282 11.8414 10.2886 11.0348C10.0425 10.7989 9.82439 10.5325 9.63414 10.2484L7.27515 11.3214C7.58714 11.8541 7.96509 12.3436 8.40138 12.7799L8.40391 12.7774Z" fill="#FD853A"/>
<path d="M13.3629 3.29316C14.555 3.29316 15.6787 3.84105 16.6223 4.72885L18.0809 2.74019C16.6655 1.40596 15.1283 0.73377 13.3882 0.708405C11.4706 0.708405 9.70262 1.52264 8.41405 2.81628C7.97776 3.25257 7.59981 3.7472 7.28528 4.27988L9.65189 5.36045C9.83198 5.09411 10.0349 4.84553 10.2607 4.62231C11.0926 3.803 12.2087 3.29316 13.3629 3.29316Z" fill="#FD853A"/>
<path d="M14.3953 7.80563L0.5 1.4617V4.16821L8.74127 7.81324L0.5 11.4481V14.1217L14.3953 7.80563Z" fill="#4E4FEB"/>
</svg>
